<svg xmlns="http://www.w3.org/2000/svg" width="45.28" height="36.714" viewBox="0 0 45.28 36.714">
  <path id="Icon_material-format-list-bulleted" data-name="Icon material-format-list-bulleted" d="M7.421,21.436a3.671,3.671,0,1,0,3.671,3.671A3.666,3.666,0,0,0,7.421,21.436Zm0-14.686a3.671,3.671,0,1,0,3.671,3.671A3.666,3.666,0,0,0,7.421,6.75Zm0,29.371a3.671,3.671,0,1,0,3.671,3.671A3.682,3.682,0,0,0,7.421,36.121Zm7.343,6.119H49.03v-4.9H14.764Zm0-14.686H49.03v-4.9H14.764Zm0-19.581v4.9H49.03v-4.9Z" transform="translate(-3.75 -6.75)" fill="#fff"/>
</svg>
