<svg xmlns="http://www.w3.org/2000/svg" width="61.953" height="49.563" viewBox="0 0 61.953 49.563">
  <path id="Icon_awesome-user-check" data-name="Icon awesome-user-check" d="M21.684,24.781A12.391,12.391,0,1,0,9.293,12.391,12.39,12.39,0,0,0,21.684,24.781Zm8.673,3.1H28.74a16.851,16.851,0,0,1-14.114,0H13.01A13.014,13.014,0,0,0,0,40.889v4.027a4.648,4.648,0,0,0,4.646,4.646H38.721a4.648,4.648,0,0,0,4.646-4.646V40.889A13.014,13.014,0,0,0,30.357,27.879ZM61.624,15.45l-2.691-2.72a1.148,1.148,0,0,0-1.626-.01L47.162,22.787l-4.4-4.434a1.148,1.148,0,0,0-1.626-.01l-2.72,2.7a1.148,1.148,0,0,0-.01,1.626l7.909,7.967a1.148,1.148,0,0,0,1.626.01L61.614,17.076a1.157,1.157,0,0,0,.01-1.626Z" fill="#fff"/>
</svg>
