<svg xmlns="http://www.w3.org/2000/svg" width="67.128" height="57.524" viewBox="0 0 67.128 57.524">
  <g id="Icon_ionic-ios-desktop" data-name="Icon ionic-ios-desktop" transform="translate(-2.25 -4.5)">
    <path id="Path_90" data-name="Path 90" d="M40.023,34.448a.763.763,0,0,0-.629-.644l-3.341-.285a5.206,5.206,0,0,1-3.341-4.24l-.18-1.154H18.745l-.18,1.139c-.285,1.813-1.573,3.776-3.341,4.24l-3.341.285a.818.818,0,0,0-.629.644.769.769,0,0,0,.764.869H39.258A.757.757,0,0,0,40.023,34.448Z" transform="translate(10.176 26.721)" fill="#fff"/>
    <path id="Path_91" data-name="Path 91" d="M68.314,5.549A3.62,3.62,0,0,0,65.767,4.5H5.876A3.593,3.593,0,0,0,3.329,5.549,3.649,3.649,0,0,0,2.25,8.1V48.852A3.622,3.622,0,0,0,3.329,51.4a3.55,3.55,0,0,0,2.517,1.049H65.782A3.524,3.524,0,0,0,68.3,51.4a3.649,3.649,0,0,0,1.079-2.547V8.1A3.571,3.571,0,0,0,68.314,5.549Zm-32.5,43.3a1.2,1.2,0,1,1,1.2-1.2A1.2,1.2,0,0,1,35.814,48.852Zm30.552-5.994H5.277a.6.6,0,0,1-.6-.6V8.7a1.8,1.8,0,0,1,1.8-1.8H65.167a1.8,1.8,0,0,1,1.8,1.8V42.259A.6.6,0,0,1,66.366,42.859Z" fill="#fff"/>
  </g>
</svg>
