<svg xmlns="http://www.w3.org/2000/svg" width="19.873" height="22" viewBox="0 0 19.873 22">
  <path id="Icon_simple-googleplay" data-name="Icon simple-googleplay" d="M1.8,0A.858.858,0,0,0,1.74.282V21.576A.533.533,0,0,0,1.909,22L12.372,10.915,8.969,7.4ZM13.078,11.649l2.705,2.791-3.862,2.2s-4.909,2.79-7.616,4.344Zm.734-.762,2.9,3.018c.455-.253,4.007-2.284,4.514-2.567.535-.31.481-.733.027-.959-.421-.234-3.973-2.269-4.51-2.6L13.809,10.89Zm-.736-.733,2.735-2.9-3.9-2.228S5.543,1.38,3.426.164l9.653,9.99Z" transform="translate(-1.74)" fill="#002a4e"/>
</svg>
