<svg xmlns="http://www.w3.org/2000/svg" width="9.013" height="14.421" viewBox="0 0 9.013 14.421">
  <path id="Icon_awesome-mobile-alt" data-name="Icon awesome-mobile-alt" d="M7.661,0H1.352A1.352,1.352,0,0,0,0,1.352V13.069a1.352,1.352,0,0,0,1.352,1.352H7.661a1.352,1.352,0,0,0,1.352-1.352V1.352A1.352,1.352,0,0,0,7.661,0ZM4.507,13.52a.9.9,0,1,1,.9-.9A.9.9,0,0,1,4.507,13.52Zm3.155-3.042a.339.339,0,0,1-.338.338H1.69a.339.339,0,0,1-.338-.338V1.69a.339.339,0,0,1,.338-.338H7.323a.339.339,0,0,1,.338.338Z" fill="#002a4e"/>
</svg>
