<svg xmlns="http://www.w3.org/2000/svg" width="14.639" height="11.869" viewBox="0 0 14.639 11.869">
  <path id="Icon_material-format-list-bulleted" data-name="Icon material-format-list-bulleted" d="M4.937,11.5a1.187,1.187,0,1,0,1.187,1.187A1.185,1.185,0,0,0,4.937,11.5Zm0-4.748A1.187,1.187,0,1,0,6.124,7.937,1.185,1.185,0,0,0,4.937,6.75Zm0,9.5a1.187,1.187,0,1,0,1.187,1.187A1.19,1.19,0,0,0,4.937,16.245Zm2.374,1.978H18.389V16.641H7.311Zm0-4.748H18.389V11.893H7.311Zm0-6.33V8.728H18.389V7.146Z" transform="translate(-3.75 -6.75)" fill="#002a4e"/>
</svg>
