<svg xmlns="http://www.w3.org/2000/svg" width="32.441" height="32.441" viewBox="0 0 32.441 32.441">
  <path id="Icon_metro-qrcode" data-name="Icon metro-qrcode" d="M12.709,3.956H4.6v8.11h8.11Zm2.028-2.028V14.094H2.571V1.928ZM6.626,5.983h4.055v4.055H6.626ZM32.985,3.956h-8.11v8.11h8.11V3.956Zm2.028-2.028V14.094H22.847V1.928H35.012ZM26.9,5.983h4.055v4.055H26.9ZM12.709,24.232H4.6v8.11h8.11ZM14.736,22.2V34.369H2.571V22.2Zm-8.11,4.055h4.055v4.055H6.626ZM16.764,1.928h2.028V3.956H16.764Zm2.028,2.028h2.028V5.983H18.791ZM16.764,5.983h2.028V8.011H16.764Zm2.028,2.028h2.028v2.028H18.791Zm-2.028,2.028h2.028v2.028H16.764Zm2.028,2.028h2.028v2.028H18.791Zm-2.028,2.028h2.028v2.028H16.764Zm0,4.055h2.028v2.028H16.764Zm2.028,2.028h2.028V22.2H18.791ZM16.764,22.2h2.028v2.028H16.764Zm2.028,2.028h2.028v2.028H18.791Zm-2.028,2.028h2.028v2.028H16.764Zm2.028,2.028h2.028v2.028H18.791Zm-2.028,2.028h2.028v2.028H16.764Zm2.028,2.028h2.028v2.028H18.791ZM32.985,18.149h2.028v2.028H32.985Zm-28.386,0H6.626v2.028H4.6Zm2.028-2.028H8.653v2.028H6.626Zm-4.055,0H4.6v2.028H2.571Zm8.11,0h2.028v2.028H10.681Zm2.028,2.028h2.028v2.028H12.709Zm2.028-2.028h2.028v2.028H14.736Zm6.083,2.028h2.028v2.028H20.819Zm2.028-2.028h2.028v2.028H22.847Zm2.028,2.028H26.9v2.028H24.874ZM26.9,16.121h2.028v2.028H26.9Zm2.028,2.028h2.028v2.028H28.929Zm2.028-2.028h2.028v2.028H30.957ZM32.985,22.2h2.028v2.028H32.985Zm-12.166,0h2.028v2.028H20.819Zm2.028-2.028h2.028V22.2H22.847ZM24.874,22.2H26.9v2.028H24.874Zm4.055,0h2.028v2.028H28.929Zm2.028-2.028h2.028V22.2H30.957Zm2.028,6.083h2.028v2.028H32.985Zm-12.166,0h2.028v2.028H20.819Zm2.028-2.028h2.028v2.028H22.847Zm4.055,0h2.028v2.028H26.9Zm2.028,2.028h2.028v2.028H28.929Zm2.028-2.028h2.028v2.028H30.957Zm2.028,6.083h2.028v2.028H32.985ZM22.847,28.287h2.028v2.028H22.847Zm2.028,2.028H26.9v2.028H24.874ZM26.9,28.287h2.028v2.028H26.9Zm2.028,2.028h2.028v2.028H28.929Zm-6.083,2.028h2.028v2.028H22.847Zm4.055,0h2.028v2.028H26.9Zm4.055,0h2.028v2.028H30.957Z" transform="translate(-2.571 -1.928)"/>
</svg>
