<svg xmlns="http://www.w3.org/2000/svg" width="16.842" height="17.593" viewBox="0 0 16.842 17.593">
  <path id="Icon_awesome-cog" data-name="Icon awesome-cog" d="M17.937,11.48l-1.511-.873a6.832,6.832,0,0,0,0-2.49l1.511-.873a.429.429,0,0,0,.2-.5,8.834,8.834,0,0,0-1.94-3.355.427.427,0,0,0-.525-.082l-1.511.873A6.694,6.694,0,0,0,12,2.939V1.2a.425.425,0,0,0-.333-.415,8.917,8.917,0,0,0-3.873,0A.425.425,0,0,0,7.46,1.2V2.942A6.905,6.905,0,0,0,5.3,4.187L3.8,3.315a.421.421,0,0,0-.525.082,8.781,8.781,0,0,0-1.94,3.355.424.424,0,0,0,.2.5l1.511.873a6.832,6.832,0,0,0,0,2.49l-1.511.873a.429.429,0,0,0-.2.5,8.834,8.834,0,0,0,1.94,3.355.427.427,0,0,0,.525.082l1.511-.873a6.694,6.694,0,0,0,2.157,1.245v1.745a.425.425,0,0,0,.333.415,8.917,8.917,0,0,0,3.873,0A.425.425,0,0,0,12,17.534V15.789a6.905,6.905,0,0,0,2.157-1.245l1.511.873a.421.421,0,0,0,.525-.082,8.781,8.781,0,0,0,1.94-3.355.438.438,0,0,0-.2-.5ZM9.73,12.2a2.838,2.838,0,1,1,2.838-2.838A2.841,2.841,0,0,1,9.73,12.2Z" transform="translate(-1.311 -0.569)" fill="#002a4e"/>
</svg>
