<svg xmlns="http://www.w3.org/2000/svg" width="38.096" height="60.953" viewBox="0 0 38.096 60.953">
  <path id="Icon_awesome-mobile-alt" data-name="Icon awesome-mobile-alt" d="M32.381,0H5.714A5.716,5.716,0,0,0,0,5.714V55.239a5.716,5.716,0,0,0,5.714,5.714H32.381A5.716,5.716,0,0,0,38.1,55.239V5.714A5.716,5.716,0,0,0,32.381,0ZM19.048,57.144a3.81,3.81,0,1,1,3.81-3.81A3.805,3.805,0,0,1,19.048,57.144ZM32.381,44.286a1.433,1.433,0,0,1-1.429,1.429H7.143a1.433,1.433,0,0,1-1.429-1.429V7.143A1.433,1.433,0,0,1,7.143,5.714h23.81a1.433,1.433,0,0,1,1.429,1.429Z" fill="#fff"/>
</svg>
