<svg xmlns="http://www.w3.org/2000/svg" width="28.71" height="35.37" viewBox="0 0 28.71 35.37">
  <path id="Icon_simple-apple" data-name="Icon simple-apple" d="M10.486,34.687a7.921,7.921,0,0,1-1.832-1.694,22.719,22.719,0,0,1-1.567-2.142A20.717,20.717,0,0,1,4.465,25.5a20.138,20.138,0,0,1-1.094-6.4,11.9,11.9,0,0,1,1.476-6.024A8.514,8.514,0,0,1,7.939,9.855a8.248,8.248,0,0,1,4.183-1.237,6.907,6.907,0,0,1,1.664.221c.427.118.943.309,1.576.545.81.309,1.252.5,1.4.545a3.45,3.45,0,0,0,1.178.25,3.525,3.525,0,0,0,.95-.191c.214-.074.619-.206,1.193-.457.569-.206,1.019-.383,1.377-.516a12.292,12.292,0,0,1,1.547-.383A7.3,7.3,0,0,1,24.7,8.559a10.031,10.031,0,0,1,2.857.619,7.708,7.708,0,0,1,3.619,2.887,7.249,7.249,0,0,0-1.068.81A9.018,9.018,0,0,0,28.3,15.091a7.511,7.511,0,0,0-.949,3.712,7.6,7.6,0,0,0,1.237,4.213,7.852,7.852,0,0,0,2.259,2.262,5.79,5.79,0,0,0,1.237.663c-.177.552-.371,1.09-.6,1.62a20.9,20.9,0,0,1-1.841,3.4c-.636.928-1.137,1.62-1.517,2.077a8.212,8.212,0,0,1-1.738,1.616,3.869,3.869,0,0,1-2.139.642,4.742,4.742,0,0,1-1.523-.187c-.427-.14-.848-.3-1.261-.476a10.222,10.222,0,0,0-1.333-.5,6.657,6.657,0,0,0-1.714-.217,6.874,6.874,0,0,0-1.709.214,10.615,10.615,0,0,0-1.336.479c-.619.258-1.024.427-1.259.5a6.585,6.585,0,0,1-1.458.258,4.05,4.05,0,0,1-2.189-.663ZM20.581,7.5a5.485,5.485,0,0,1-2.906.642,5.907,5.907,0,0,1,.4-3,8.111,8.111,0,0,1,1.473-2.474,7.967,7.967,0,0,1,2.4-1.856A6.83,6.83,0,0,1,24.731,0a6.7,6.7,0,0,1-.368,3.049A8.746,8.746,0,0,1,22.889,5.64,7.43,7.43,0,0,1,20.553,7.5Z" transform="translate(-3.37 0.001)" fill="#fff"/>
</svg>
