<svg xmlns="http://www.w3.org/2000/svg" width="24.452" height="24.452" viewBox="0 0 24.452 24.452">
  <path id="Icon_awesome-app-store-ios" data-name="Icon awesome-app-store-ios" d="M21.832,2.25H2.62A2.62,2.62,0,0,0,0,4.87V24.082A2.62,2.62,0,0,0,2.62,26.7H21.832a2.62,2.62,0,0,0,2.62-2.62V4.87A2.62,2.62,0,0,0,21.832,2.25ZM6.932,21.489A1.091,1.091,0,1,1,5.043,20.4l.78-1.348a1.873,1.873,0,0,1,2.161.622Zm7.581-2.942H4.585a1.092,1.092,0,0,1,0-2.183H7.368l3.57-6.178L9.819,8.254a1.091,1.091,0,0,1,1.888-1.092L12.193,8l.486-.841a1.091,1.091,0,0,1,1.888,1.092L9.884,16.364h3.389a1.5,1.5,0,0,1,1.239,2.183Zm5.354,0H18.284l1.07,1.85a1.091,1.091,0,0,1-1.888,1.092q-2.694-4.658-4.039-6.992a3.019,3.019,0,0,1,.388-3.7q1.072,1.858,3.215,5.567h2.838a1.092,1.092,0,1,1,0,2.183Z" transform="translate(0 -2.25)" fill="#002a4e"/>
</svg>
