<svg xmlns="http://www.w3.org/2000/svg" width="51.004" height="71.545" viewBox="0 0 51.004 71.545">
  <path id="Path_89" data-name="Path 89" d="M1803.764-614.89l-12.929,12.928v36.485a4.759,4.759,0,0,1-1.462,3.495,4.762,4.762,0,0,1-3.495,1.462,4.77,4.77,0,0,1-3.5-1.462,4.761,4.761,0,0,1-1.462-3.495v-17h-2.833v17a4.759,4.759,0,0,1-1.462,3.495,4.762,4.762,0,0,1-3.495,1.462,4.771,4.771,0,0,1-3.5-1.462,4.761,4.761,0,0,1-1.462-3.495v-36.485l-12.928-12.928A4.086,4.086,0,0,1,1754-617.9a4.089,4.089,0,0,1,1.239-3.011,4.1,4.1,0,0,1,3.011-1.239,4.092,4.092,0,0,1,3.011,1.239l10.1,10.095h16.291l10.095-10.095a4.1,4.1,0,0,1,3.011-1.239,4.094,4.094,0,0,1,3.011,1.239A4.09,4.09,0,0,1,1805-617.9,4.088,4.088,0,0,1,1803.764-614.89Zm-17.243-14.277a9.57,9.57,0,0,1,2.9,7.02,9.567,9.567,0,0,1-2.9,7.016,9.561,9.561,0,0,1-7.02,2.9,9.551,9.551,0,0,1-7.016-2.9,9.558,9.558,0,0,1-2.9-7.016,9.561,9.561,0,0,1,2.9-7.02,9.548,9.548,0,0,1,7.016-2.9A9.558,9.558,0,0,1,1786.521-629.167Z" transform="translate(-1753.999 632.065)" fill="#fff"/>
</svg>
