<svg xmlns="http://www.w3.org/2000/svg" width="26.949" height="9.172" viewBox="0 0 26.949 9.172">
  <g id="Group_114" data-name="Group 114" transform="translate(0 0)">
    <g id="Group_10" data-name="Group 10" transform="translate(2.228 2.169)">
      <path id="Path_92" data-name="Path 92" d="M-752.608,1104.161a.381.381,0,0,1,.187.244.4.4,0,0,1-.039.307l-.2.346a.38.38,0,0,1-.244.187.4.4,0,0,1-.307-.039l-.837-.482v.966a.388.388,0,0,1-.12.283.388.388,0,0,1-.283.12h-.4a.388.388,0,0,1-.283-.12.388.388,0,0,1-.12-.283v-.966l-.837.482a.4.4,0,0,1-.307.039.38.38,0,0,1-.244-.187l-.2-.346a.4.4,0,0,1-.039-.307.38.38,0,0,1,.187-.244l.837-.485-.837-.485a.381.381,0,0,1-.187-.244.4.4,0,0,1,.039-.307l.2-.346a.38.38,0,0,1,.244-.187.4.4,0,0,1,.307.039l.837.482v-.966a.387.387,0,0,1,.12-.283.388.388,0,0,1,.283-.12h.4a.387.387,0,0,1,.283.12.388.388,0,0,1,.12.283v.966l.837-.482a.4.4,0,0,1,.307-.039.38.38,0,0,1,.244.187l.2.346a.4.4,0,0,1,.039.307.381.381,0,0,1-.187.244l-.837.485Z" transform="translate(756.902 -1101.259)" fill="#f06622"/>
      <path id="Path_93" data-name="Path 93" d="M-716.544,1104.161a.38.38,0,0,1,.187.244.4.4,0,0,1-.039.307l-.2.346a.38.38,0,0,1-.244.187.4.4,0,0,1-.307-.039l-.837-.482v.966a.388.388,0,0,1-.12.283.388.388,0,0,1-.283.12h-.4a.388.388,0,0,1-.283-.12.387.387,0,0,1-.12-.283v-.966l-.837.482a.4.4,0,0,1-.307.039.379.379,0,0,1-.244-.187l-.2-.346a.4.4,0,0,1-.039-.307.38.38,0,0,1,.187-.244l.837-.485-.837-.485a.381.381,0,0,1-.187-.244.4.4,0,0,1,.039-.307l.2-.346a.379.379,0,0,1,.244-.187.4.4,0,0,1,.307.039l.837.482v-.966a.387.387,0,0,1,.12-.283.387.387,0,0,1,.283-.12h.4a.387.387,0,0,1,.283.12.388.388,0,0,1,.12.283v.966l.837-.482a.4.4,0,0,1,.307-.039.381.381,0,0,1,.244.187l.2.346a.4.4,0,0,1,.039.307.381.381,0,0,1-.187.244l-.837.485Z" transform="translate(726.837 -1101.259)" fill="#f06622"/>
      <path id="Path_94" data-name="Path 94" d="M-680.481,1104.161a.38.38,0,0,1,.187.244.4.4,0,0,1-.039.307l-.2.346a.379.379,0,0,1-.244.187.4.4,0,0,1-.307-.039l-.837-.482v.966a.387.387,0,0,1-.12.283.388.388,0,0,1-.283.12h-.4a.388.388,0,0,1-.283-.12.388.388,0,0,1-.12-.283v-.966l-.837.482a.4.4,0,0,1-.307.039.379.379,0,0,1-.244-.187l-.2-.346a.4.4,0,0,1-.039-.307.38.38,0,0,1,.187-.244l.837-.485-.837-.485a.381.381,0,0,1-.187-.244.4.4,0,0,1,.039-.307l.2-.346a.38.38,0,0,1,.244-.187.4.4,0,0,1,.307.039l.837.482v-.966a.387.387,0,0,1,.12-.283.387.387,0,0,1,.283-.12h.4a.387.387,0,0,1,.283.12.387.387,0,0,1,.12.283v.966l.837-.482a.4.4,0,0,1,.307-.039.38.38,0,0,1,.244.187l.2.346a.4.4,0,0,1,.039.307.381.381,0,0,1-.187.244l-.837.485Z" transform="translate(696.773 -1101.259)" fill="#f06622"/>
      <path id="Path_95" data-name="Path 95" d="M-644.418,1104.161a.38.38,0,0,1,.187.244.4.4,0,0,1-.039.307l-.2.346a.379.379,0,0,1-.244.187.4.4,0,0,1-.307-.039l-.837-.482v.966a.387.387,0,0,1-.12.283.388.388,0,0,1-.283.12h-.4a.388.388,0,0,1-.283-.12.388.388,0,0,1-.12-.283v-.966l-.837.482a.4.4,0,0,1-.307.039.379.379,0,0,1-.244-.187l-.2-.346a.4.4,0,0,1-.039-.307.38.38,0,0,1,.187-.244l.837-.485-.837-.485a.381.381,0,0,1-.187-.244.4.4,0,0,1,.039-.307l.2-.346a.38.38,0,0,1,.244-.187.4.4,0,0,1,.307.039l.837.482v-.966a.387.387,0,0,1,.12-.283.387.387,0,0,1,.283-.12h.4a.387.387,0,0,1,.283.12.387.387,0,0,1,.12.283v.966l.837-.482a.4.4,0,0,1,.307-.039.38.38,0,0,1,.244.187l.2.346a.4.4,0,0,1,.039.307.38.38,0,0,1-.187.244l-.837.485Z" transform="translate(666.709 -1101.259)" fill="#f06622"/>
    </g>
    <g id="Group_11" data-name="Group 11">
      <path id="Path_96" data-name="Path 96" d="M-745.793,1097.395h-22.055a2.45,2.45,0,0,1-2.447-2.447v-4.278a2.45,2.45,0,0,1,2.447-2.447h22.055a2.45,2.45,0,0,1,2.447,2.447v4.278A2.45,2.45,0,0,1-745.793,1097.395Zm-22.055-8.582a1.859,1.859,0,0,0-1.856,1.856v4.278a1.859,1.859,0,0,0,1.856,1.856h22.055a1.859,1.859,0,0,0,1.856-1.856v-4.278a1.859,1.859,0,0,0-1.856-1.856Z" transform="translate(770.295 -1088.222)" fill="#0f2b4d"/>
    </g>
  </g>
</svg>
