<svg xmlns="http://www.w3.org/2000/svg" width="68.221" height="62" viewBox="0 0 68.221 62">
  <g id="Group_62" data-name="Group 62" transform="translate(-195 -441)">
    <g id="Group_65" data-name="Group 65" transform="translate(-114 -426)">
      <path id="Icon_awesome-user-alt" data-name="Icon awesome-user-alt" d="M26.477,29.786A14.893,14.893,0,1,0,11.583,14.893,14.9,14.9,0,0,0,26.477,29.786ZM39.715,33.1h-5.7a18,18,0,0,1-15.079,0h-5.7A13.237,13.237,0,0,0,0,46.334v1.655a4.966,4.966,0,0,0,4.964,4.964H47.989a4.966,4.966,0,0,0,4.964-4.964V46.334A13.237,13.237,0,0,0,39.715,33.1Z" transform="translate(309 876.047)" fill="#fff"/>
      <path id="Icon_awesome-mobile-alt" data-name="Icon awesome-mobile-alt" d="M18.038,0H3.183A3.184,3.184,0,0,0,0,3.183V30.77a3.184,3.184,0,0,0,3.183,3.183H18.038a3.184,3.184,0,0,0,3.183-3.183V3.183A3.184,3.184,0,0,0,18.038,0ZM10.61,31.831a2.122,2.122,0,1,1,2.122-2.122A2.12,2.12,0,0,1,10.61,31.831Zm7.427-7.162a.8.8,0,0,1-.8.8H3.979a.8.8,0,0,1-.8-.8V3.979a.8.8,0,0,1,.8-.8H17.242a.8.8,0,0,1,.8.8Z" transform="translate(356 867)" fill="#fff"/>
    </g>
  </g>
</svg>
