<svg xmlns="http://www.w3.org/2000/svg" width="39.522" height="65.862" viewBox="0 0 39.522 65.862">
  <g id="Icon_ionic-md-rocket" data-name="Icon ionic-md-rocket" transform="translate(-7.882 -1.125)">
    <path id="Path_535" data-name="Path 535" d="M21.6,30.419a14.774,14.774,0,0,1-5.886-1.5,1.067,1.067,0,0,0-1.5,1.043l.48,7a.537.537,0,0,0,.864.384l1.99-1.509a.543.543,0,0,1,.782.137l2.813,4.4a.539.539,0,0,0,.906,0l2.813-4.4a.543.543,0,0,1,.782-.137l1.99,1.509a.537.537,0,0,0,.864-.384l.48-7a1.062,1.062,0,0,0-1.5-1.043A14.839,14.839,0,0,1,21.6,30.419Z" transform="translate(6.026 26.36)" fill="#fff"/>
    <path id="Path_536" data-name="Path 536" d="M47.07,39.147,40.484,32.41C40.484,10.73,27.7,1.125,27.7,1.125S14.784,10.73,14.784,32.41L8.2,39.147a1.141,1.141,0,0,0-.3.974l2.525,15.34a1.05,1.05,0,0,0,1.619.741l9.207-6.229a10.474,10.474,0,0,0,6.463,2.744,9.9,9.9,0,0,0,6.326-2.744L43.242,56.2a1.055,1.055,0,0,0,1.619-.741L47.4,40.107A1.219,1.219,0,0,0,47.07,39.147ZM27.7,25.274a4.395,4.395,0,1,1,4.212-4.391A4.3,4.3,0,0,1,27.7,25.274Z" transform="translate(0 0)" fill="#002a4e"/>
  </g>
</svg>
